<?xml version="1.0" standalone="no"?>
<!DOCTYPE svg PUBLIC "-//W3C//DTD SVG 20010904//EN"
 "http://www.w3.org/TR/2001/REC-SVG-20010904/DTD/svg10.dtd">
<svg version="1.0" xmlns="http://www.w3.org/2000/svg"
 width="325.000000pt" height="325.000000pt" viewBox="0 0 325.000000 325.000000"
 preserveAspectRatio="xMidYMid meet">

<g transform="translate(0.000000,325.000000) scale(0.100000,-0.100000)"
fill="#000000" stroke="none">
<path d="M0 1625 l0 -1625 1625 0 1625 0 0 1625 0 1625 -1625 0 -1625 0 0
-1625z m460 -285 l0 -530 155 0 155 0 0 -120 0 -120 -295 0 -295 0 0 650 0
650 140 0 140 0 0 -530z m660 375 l0 -135 -130 0 -130 0 0 135 0 135 130 0
130 0 0 -135z m587 -247 l192 -383 0 378 1 377 110 0 110 0 0 -640 0 -640
-109 0 -108 0 -18 48 c-10 26 -102 214 -204 417 l-186 370 -3 -418 -2 -417
-115 0 -115 0 0 645 0 645 128 0 127 0 192 -382z m1353 207 l0 -165 -170 0
-170 0 0 60 0 60 -120 0 -120 0 0 -430 0 -430 145 0 145 0 0 110 0 110 -100 0
-100 0 0 105 0 105 245 0 245 0 0 -320 0 -320 -400 0 -400 0 0 640 0 640 400
0 400 0 0 -165z m-1940 -620 l0 -475 -130 0 -130 0 0 475 0 475 130 0 130 0 0
-475z m1950 -615 l0 -40 -1445 0 -1445 0 0 40 0 40 1445 0 1445 0 0 -40z"/>
</g>
</svg>
