<?xml version="1.0" encoding="UTF-8"?>
<svg version="1.1" xmlns="http://www.w3.org/2000/svg" width="325" height="325">
<path d="M0 0 C107.25 0 214.5 0 325 0 C325 107.25 325 214.5 325 325 C217.75 325 110.5 325 0 325 C0 217.75 0 110.5 0 0 Z " fill="#00101B" transform="translate(0,0)"/>
<path d="M0 0 C8.58 0 17.16 0 26 0 C38.21 24.42 50.42 48.84 63 74 C63.33 49.91 63.66 25.82 64 1 C71.26 1 78.52 1 86 1 C86 43.24 86 85.48 86 129 C78.74 129 71.48 129 64 129 C63.0203125 126.71320313 62.040625 124.42640625 61.03125 122.0703125 C54.44463287 107.06614265 46.85879119 92.50872363 39.5 77.875 C34.385 67.68625 29.27 57.4975 24 47 C23.67 74.06 23.34 101.12 23 129 C15.41 129 7.82 129 0 129 C0 86.43 0 43.86 0 0 Z " fill="#FFFFFF" transform="translate(126,140)"/>
<path d="M0 0 C26.4 0 52.8 0 80 0 C80 10.89 80 21.78 80 33 C68.78 33 57.56 33 46 33 C46 29.04 46 25.08 46 21 C38.08 21 30.16 21 22 21 C22 49.38 22 77.76 22 107 C31.57 107 41.14 107 51 107 C51 99.74 51 92.48 51 85 C44.4 85 37.8 85 31 85 C31 78.07 31 71.14 31 64 C47.17 64 63.34 64 80 64 C80 85.12 80 106.24 80 128 C53.6 128 27.2 128 0 128 C0 85.76 0 43.52 0 0 Z " fill="#FFFFFF" transform="translate(226,141)"/>
<path d="M0 0 C9.24 0 18.48 0 28 0 C28 34.98 28 69.96 28 106 C38.23 106 48.46 106 59 106 C59 113.92 59 121.84 59 130 C39.53 130 20.06 130 0 130 C0 87.1 0 44.2 0 0 Z " fill="#FFFFFF" transform="translate(18,138)"/>
<path d="M0 0 C8.58 0 17.16 0 26 0 C26 31.35 26 62.7 26 95 C17.42 95 8.84 95 0 95 C0 63.65 0 32.3 0 0 Z " fill="#FEFEFE" transform="translate(86,172)"/>
<path d="M0 0 C95.37 0 190.74 0 289 0 C289 2.64 289 5.28 289 8 C193.63 8 98.26 8 0 8 C0 5.36 0 2.72 0 0 Z " fill="#FFFF00" transform="translate(18,277)"/>
<path d="M0 0 C8.58 0 17.16 0 26 0 C26 8.91 26 17.82 26 27 C17.42 27 8.84 27 0 27 C0 18.09 0 9.18 0 0 Z " fill="#FFFF00" transform="translate(86,140)"/>
</svg>
